PathFileType	4	(X/Y/Z)	static.trc
DataRate	CameraRate	NumFrames	NumMarkers	Units	OrigDataRate	OrigDataStartFrame	OrigNumFrames
250.000000	250.000000	4	55	mm	250.000000	242	647
Frame#	Time	C7			RSH			LSH			MAN			T7			LARM			LELB			LFOREARM			LWR			RARM			RELB			RFOREARM			RWR			RASI			LASI			SACR			P1			P2			P3			LTHLP			LTHLD			LTHAP			LTHAD			LLEPI			LPAT			LMEPI			LTIAP			LTIAD			LTILAT			LLMAL			LMMAL			LHEEL			LMFS			LMFL			LP1MT			LTOE			LP5MT			RTHLP			RTHLD			RTHAP			RTHAD			RLEPI			RPAT			RMEPI			RTIAP			RTIAD			RTILAT			RLMAL			RMMAL			RHEEL			RMFS			RMFL			RP1MT			RTOE			RP5MT			
		X1	Y1	Z1	X2	Y2	Z2	X3	Y3	Z3	X4	Y4	Z4	X5	Y5	Z5	X6	Y6	Z6	X7	Y7	Z7	X8	Y8	Z8	X9	Y9	Z9	X10	Y10	Z10	X11	Y11	Z11	X12	Y12	Z12	X13	Y13	Z13	X14	Y14	Z14	X15	Y15	Z15	X16	Y16	Z16	X17	Y17	Z17	X18	Y18	Z18	X19	Y19	Z19	X20	Y20	Z20	X21	Y21	Z21	X22	Y22	Z22	X23	Y23	Z23	X24	Y24	Z24	X25	Y25	Z25	X26	Y26	Z26	X27	Y27	Z27	X28	Y28	Z28	X29	Y29	Z29	X30	Y30	Z30	X31	Y31	Z31	X32	Y32	Z32	X33	Y33	Z33	X34	Y34	Z34	X35	Y35	Z35	X36	Y36	Z36	X37	Y37	Z37	X38	Y38	Z38	X39	Y39	Z39	X40	Y40	Z40	X41	Y41	Z41	X42	Y42	Z42	X43	Y43	Z43	X44	Y44	Z44	X45	Y45	Z45	X46	Y46	Z46	X47	Y47	Z47	X48	Y48	Z48	X49	Y49	Z49	X50	Y50	Z50	X51	Y51	Z51	X52	Y52	Z52	X53	Y53	Z53	X54	Y54	Z54	X55	Y55	Z55	

243	0.968	-693.4030761718752	1567.574218750001	314.718963623047	-652.790954589844	1558.801147460938	479.2835998535159	-691.3128662109377	1552.934570312501	159.7720031738282	-542.1030273437502	1483.49169921875	311.6258544921876	-749.5501098632815	1373.648193359375	323.9490051269532	-713.0443115234377	1374.622436523438	44.19550704956056	-732.548278808594	1249.835693359375	-11.99598598480225	-687.2025146484377	1141.5322265625	-98.97668457031256	-667.0131835937502	1017.450256347657	-160.2726135253907	-670.5989379882815	1389.955932617188	591.5491943359377	-699.7918090820315	1265.50634765625	656.9812622070315	-656.8510742187502	1156.335571289063	741.658874511719	-638.2410278320315	1034.693969726563	805.6879272460942	-534.3043212890627	1087.214233398438	404.8332519531252	-561.859558105469	1091.499267578125	189.6744079589844	-732.0393676757815	1134.422485351563	324.5605773925782	-752.9354248046877	1108.254516601563	273.3200683593751	-737.421569824219	1103.978271484375	378.4277648925782	-776.6849975585942	1050.27099609375	327.0113525390626	-670.8753051757815	798.7097778320317	110.1731262207032	-666.1204833984377	684.6499023437502	115.9359512329102	-537.1378173828127	784.5969848632817	175.6003723144532	-557.2942504882815	675.6016235351565	182.0072174072266	-659.6836547851565	559.2644042968752	125.4553451538087	-579.6738281250002	561.1277465820315	186.7206115722657	-659.3884887695315	541.5032348632815	251.3377075195314	-643.690368652344	381.4731445312501	190.2814636230469	-659.8034667968752	243.5271606445314	182.4393157958985	-695.4790039062502	321.2524414062501	110.1455383300782	-701.8943481445315	102.6731719970704	122.1093902587891	-680.6391601562502	112.6966247558594	214.9359130859376	-765.6885375976565	60.85500717163089	166.5194091796876	-600.6616210937502	94.75567626953128	169.7819213867188	-628.7318115234377	69.81520843505862	107.0924911499024	-553.3970947265627	46.48590087890626	202.7456512451173	-498.0226135253909	58.88830947875979	164.2471160888672	-576.6746826171877	36.12355041503908	78.63972473144534	-632.9008789062502	825.1310424804692	518.0849609375002	-636.0426025390627	711.4694824218752	512.5791015625002	-529.7413330078127	783.0170288085942	427.2672424316409	-550.527526855469	686.547058105469	423.4687500000002	-653.4676513671877	559.6687622070315	492.9182739257815	-585.5671386718752	551.0610351562502	429.234802246094	-686.4578247070315	544.389343261719	369.527069091797	-658.9253540039065	344.153533935547	421.7847595214846	-673.8069458007815	218.0313720703126	415.9353332519534	-694.528747558594	338.2263793945314	508.5418701171877	-695.3118896484377	102.6872100830079	482.488952636719	-684.5899658203127	112.9851531982422	388.5166625976565	-765.4253540039065	59.04286193847659	441.8623352050784	-592.660339355469	98.03164672851568	432.5412902832034	-629.364929199219	69.529411315918	491.4552917480471	-554.4165039062502	49.05990219116214	388.7103271484377	-494.2521972656252	59.24309921264651	426.2730102539065	-569.8296508789065	40.61713790893556	515.9432373046877	
244	0.972	-698.2034912109377	1569.058715820313	315.6826782226564	-652.8189697265627	1558.800292968751	479.2131958007815	-691.3081665039065	1552.935424804688	159.7736816406251	-542.0632324218752	1483.495727539063	311.6157531738282	-749.5125732421877	1373.656005859375	323.8838195800782	-713.064636230469	1374.617797851563	44.14762115478517	-732.5122070312502	1249.863159179688	-12.08733940124512	-687.2764892578127	1141.546020507813	-98.77032470703131	-667.0312500000002	1017.456176757813	-160.2109832763672	-670.6267700195315	1389.962036132813	591.5223388671877	-699.7564086914065	1265.539428710938	656.9494628906252	-656.8624267578127	1156.31494140625	741.531921386719	-638.2723388671877	1034.669677734375	805.6320190429692	-534.2698364257815	1087.186645507813	404.7840270996096	-561.8498535156252	1091.527587890625	189.6763153076172	-731.9829101562502	1134.413818359375	324.569549560547	-753.0080566406252	1108.3046875	273.2543029785157	-737.4306640625002	1103.92724609375	378.4859924316407	-776.7683715820317	1050.268432617188	327.0655822753907	-670.8465576171877	798.7177734375005	110.1320571899415	-666.1077880859377	684.633972167969	115.9245529174805	-537.1345214843752	784.5842285156255	175.5987396240235	-557.2318115234377	675.5555419921877	181.9770202636719	-659.6375122070315	559.2268676757815	125.3781433105469	-579.6842041015627	561.1026000976565	186.7167358398438	-659.393981933594	541.5336914062502	251.4108276367189	-643.6447753906252	381.4688110351564	190.2882690429688	-659.7961425781252	243.6672363281251	182.5921173095704	-695.474548339844	321.2296142578126	110.1689605712891	-701.8549804687502	102.6253738403321	122.1230010986329	-680.6910400390627	112.6557006835938	214.8241119384767	-765.6834106445315	60.84880447387698	166.5139160156251	-600.7075195312502	94.67152404785159	169.7864227294922	-628.747253417969	69.82841491699222	107.2575378417969	-553.4824829101565	46.38314819335939	202.6609954833986	-498.0635070800784	58.90154647827151	164.3311767578126	-576.7030029296877	36.07448196411134	78.748405456543	-632.8706665039065	825.1260375976567	518.018005371094	-636.0252685546877	711.4592895507815	512.546325683594	-529.7182617187502	783.0314941406255	427.2398376464846	-550.5530395507815	686.5420532226565	423.4763793945315	-653.4385986328127	559.6923828125002	492.895935058594	-585.6074218750002	551.0787353515627	429.2357482910159	-686.4487915039065	544.348327636719	369.5237731933595	-658.9589843750002	344.1217346191407	421.7616882324221	-673.8093261718752	217.9293823242189	415.9223937988284	-694.5606079101565	338.224334716797	508.5110473632815	-695.5512695312502	102.4246902465821	482.3162536621096	-684.5814208984377	113.0272598266602	388.5087890625002	-765.5002441406252	59.06574249267581	441.8240051269534	-592.6609497070315	98.07729339599615	432.6008300781252	-629.3842773437502	69.53784179687503	491.4351501464846	-554.3906860351565	49.08920669555667	388.7229309082034	-494.2154235839846	59.22544097900393	426.2825012207034	-569.7666015625002	40.65411758422853	516.013122558594	
245	0.976	-693.358093261719	1567.475585937501	314.6971740722657	-652.802673339844	1558.797973632813	479.1960449218752	-691.4006958007815	1553.017333984376	159.7222595214844	-542.0383300781252	1483.437377929688	311.4429321289064	-749.5267333984377	1373.644653320313	323.8457946777345	-713.077819824219	1374.6279296875	44.17139816284181	-732.5675048828127	1249.841064453125	-12.08508396148682	-687.2564697265627	1141.508056640625	-98.88549804687506	-667.0022583007815	1017.409423828125	-160.2827148437501	-670.6817016601565	1389.967041015625	591.4580688476565	-699.8193969726565	1265.55908203125	656.881774902344	-656.9595336914065	1156.352172851563	741.4532470703127	-638.3110961914065	1034.716552734375	805.605102539063	-534.2736816406252	1087.145751953125	404.768737792969	-561.8878173828127	1091.4814453125	189.6239929199219	-732.067810058594	1134.445190429688	324.4397888183595	-752.9133911132815	1108.283569335938	273.2487792968751	-737.4155273437502	1103.884765625	378.4580383300782	-776.6996459960942	1050.282836914063	326.9684143066407	-670.8345336914065	798.7142944335942	110.0947265625001	-666.1002197265627	684.651306152344	115.8819885253907	-537.0571289062502	784.5706176757817	175.3717803955079	-557.292663574219	675.5806884765627	182.0033111572266	-659.6832275390627	559.2337646484377	125.4343490600587	-579.6715087890627	561.1132812500002	186.676254272461	-659.3452148437502	541.4893188476565	251.3208770751954	-643.6813964843752	381.4860839843751	190.2743225097657	-659.7602539062502	243.5982055664064	182.3958435058594	-695.4966430664065	321.2706909179689	110.0824584960938	-701.8704223632815	102.5934677124024	122.1185531616212	-680.7113037109377	112.6499404907227	214.8078918457032	-765.682800292969	60.80289459228518	166.4348449707032	-600.6697998046877	94.71604919433597	169.7174987792969	-628.756286621094	69.790885925293	107.2414855957032	-553.4162597656252	46.4282569885254	202.7150421142579	-498.0688171386721	58.8925704956055	164.3314514160157	-576.7435302734377	36.136531829834	78.70871734619143	-632.8477783203127	825.1427612304692	518.0422363281252	-636.0247192382815	711.4515380859377	512.5198364257815	-529.7268676757815	783.0249023437505	427.2198181152346	-550.507263183594	686.5395507812502	423.4094848632815	-653.449157714844	559.6978759765627	492.9021911621096	-585.598083496094	551.073669433594	429.136413574219	-686.436218261719	544.3365478515627	369.5042419433595	-658.9296875000002	344.1294860839845	421.7402954101565	-673.8745117187502	217.9196777343751	415.9798583984377	-694.568298339844	338.1900634765626	508.5222778320315	-695.2647094726565	102.7240676879883	482.5566711425784	-684.9354248046877	112.8958282470704	388.8243103027346	-765.4485473632815	59.03349304199222	441.724792480469	-592.6323852539065	98.06163787841803	432.5035400390627	-629.3430786132815	69.56000518798831	491.4932556152346	-554.4420166015627	49.12776184082034	388.8084106445315	-494.2279052734377	59.27118301391604	426.2000427246096	-569.8162841796877	40.61697006225587	515.953796386719	
246	0.98	-693.3082275390627	1567.495483398438	314.6684570312501	-652.7786865234377	1558.800415039063	479.142272949219	-691.440856933594	1553.012329101563	159.7803497314454	-542.0764160156252	1483.4814453125	311.5238342285157	-749.4879150390627	1373.59521484375	323.8052368164064	-713.0530395507815	1374.59375	44.12693023681642	-732.5263671875002	1249.833740234375	-12.11374092102051	-687.2849121093752	1141.534423828125	-98.81287384033209	-667.0004882812502	1017.416259765625	-160.2669525146485	-670.6507568359377	1389.9697265625	591.4249267578127	-699.7452392578127	1265.66796875	656.917663574219	-656.9096679687502	1156.356201171875	741.494567871094	-638.3201293945315	1034.712768554688	805.5977172851567	-534.303405761719	1087.173950195313	404.7437133789065	-561.860290527344	1091.516967773438	189.5968475341797	-732.044860839844	1134.428100585938	324.4465332031251	-753.0596923828127	1108.370971679688	273.0606384277345	-737.3362426757815	1103.845703125	378.4070739746095	-776.771850585938	1050.247314453125	326.9819946289064	-670.8394165039065	798.7274780273442	110.0224838256837	-666.0681152343752	684.6447753906252	115.8654251098633	-537.0645141601565	784.5888061523442	175.3743591308594	-557.2830200195315	675.5446777343752	182.0166625976563	-659.6961059570315	559.2615966796877	125.4151840209962	-579.6448364257815	561.110046386719	186.6463775634766	-659.373962402344	541.5029296875002	251.3333435058595	-643.6489868164065	381.4761657714845	190.2802886962891	-659.7620849609377	243.5581817626954	182.4744567871094	-695.4628906250002	321.2108459472657	110.1268615722657	-701.9915161132815	102.5341186523438	122.1874313354493	-680.758239746094	112.6903533935547	214.8552703857423	-765.6744384765627	60.85430526733401	166.5285949707032	-600.6602783203127	94.72471618652347	169.755111694336	-628.7573242187502	69.80163574218753	107.2121124267579	-553.4671020507815	46.47079849243165	202.7690429687501	-498.012634277344	58.95219421386722	164.2889556884766	-576.7312622070315	36.09757614135744	78.75024414062503	-632.8565063476565	825.1560668945317	517.9610595703127	-635.9666137695315	711.4585571289065	512.5805664062502	-529.7122802734377	783.012329101563	427.1959228515627	-550.5148925781252	686.5308227539065	423.4348754882815	-653.4758300781252	559.6481933593752	492.7656250000002	-585.6103515625002	551.070983886719	429.1207275390627	-686.488464355469	544.343444824219	369.493377685547	-658.9758300781252	344.0730895996095	421.8156738281252	-673.879089355469	217.9405822753907	415.9704895019534	-694.552673339844	338.2355957031251	508.5227355957034	-695.5972900390627	102.4119949340821	482.2904968261721	-684.8620605468752	112.9104614257813	388.7869873046877	-765.455505371094	59.06179428100589	441.7365417480471	-592.652282714844	98.07535552978521	432.5906982421877	-629.367858886719	69.53336334228518	491.4494323730471	-554.3956298828127	49.07552719116214	388.7839660644534	-494.2528076171877	59.22583770751956	426.2662048339846	-569.7838134765627	40.64059448242189	515.9883422851565	
